<svg xmlns="http://www.w3.org/2000/svg" xmlns:xlink="http://www.w3.org/1999/xlink" width="1920" height="1080" viewBox="0 0 1920 1080"><defs><style>.a,.e{fill:#fff;}.a{stroke:#707070;}.b{fill:url(#a);}.c{clip-path:url(#b);}.d{fill:#e8e8e8;opacity:0.33;}.d,.e{stroke:rgba(0,0,0,0);stroke-miterlimit:10;}.e{opacity:0.747;}</style><linearGradient id="a" x1="1" x2="0" y2="1" gradientUnits="objectBoundingBox"><stop offset="0" stop-color="#fff"/><stop offset="1" stop-color="#f2f2f2"/></linearGradient><clipPath id="b"><rect class="a" width="1920" height="1080"/></clipPath></defs><rect class="b" width="1920" height="1080"/><g class="c"><path class="d" d="M17725.855-2156.667c-37.477-37.539-.576-77.032-51.568-128.094l-8.256-8.278c-31.164-31.2-58.012-29.54-82.75-32.108a67.82,67.82,0,0,1-11.273-1.247,66.38,66.38,0,0,1-14.277-4.725,60.884,60.884,0,0,1-14.7-9.133l-.236-.2c-1.566-1.3-3.1-2.678-4.648-4.222-1.561-1.563-2.936-3.106-4.232-4.67l-.186-.223a60.647,60.647,0,0,1-9.176-14.844,66.922,66.922,0,0,1-5.9-25.356c-2.564-24.8-.857-51.732-32.074-83l-8.246-8.259c-50.98-51.064-90.449-14.156-127.895-51.658a66.884,66.884,0,0,1-19.609-47.417,66.849,66.849,0,0,1,19.609-47.417,66.642,66.642,0,0,1,47.348-19.643,66.611,66.611,0,0,1,47.342,19.643c37.475,37.521.576,77.013,51.568,128.094l8.246,8.26c30.213,30.265,56.4,29.615,80.516,31.884,24.123-2.269,50.313-1.582,80.574-31.884l8.256-8.26c31.158-31.233,29.508-58.131,32.072-82.909a66.613,66.613,0,0,1,5.941-25.559,61.049,61.049,0,0,1,9.117-14.733l.2-.242c1.3-1.563,2.674-3.106,4.234-4.651a66.6,66.6,0,0,1,47.32-19.643,66.639,66.639,0,0,1,42.6,15.31c1.656,1.357,3.229,2.809,4.752,4.334,1.547,1.544,2.922,3.088,4.244,4.651l.16.223a60.226,60.226,0,0,1,9.176,14.845,67.052,67.052,0,0,1,5.908,25.337c2.582,24.815.855,51.751,32.09,83.039l8.242,8.26c50.98,51.044,90.43,14.137,127.875,51.64a66.927,66.927,0,0,1,19.609,47.436,66.916,66.916,0,0,1-19.609,47.417,66.685,66.685,0,0,1-47.324,19.644,66.739,66.739,0,0,1-47.352-19.644c-37.469-37.538-.576-77.031-51.582-128.1l-8.246-8.259c-30.213-30.285-56.391-29.634-80.488-31.9-24.125,2.288-50.328,1.581-80.584,31.9l-8.248,8.259c-30.211,30.266-29.586,56.477-31.848,80.622,2.281,24.184,1.578,50.412,31.848,80.734l8.248,8.26c50.959,51.044,90.449,14.137,127.881,51.64a66.944,66.944,0,0,1,19.615,47.417,66.956,66.956,0,0,1-19.615,47.436,66.75,66.75,0,0,1-47.355,19.643A66.678,66.678,0,0,1,17725.855-2156.667Zm554.426-2.456c-37.461-37.539-.574-77.032-51.555-128.094l-8.273-8.279c-30.211-30.266-56.375-29.614-80.5-31.884-24.125,2.27-50.312,1.582-80.562,31.884l-8.27,8.279c-30.863,30.917-29.527,57.592-31.975,82.165v.094c-.039.223-.057.446-.076.669a66.915,66.915,0,0,1-5.967,25.522l-.07.149c-.211.484-.369.949-.6,1.414l-.037.056a59.96,59.96,0,0,1-8.414,13.115l-.205.242a62.039,62.039,0,0,1-4.213,4.669,66.71,66.71,0,0,1-47.342,19.625c-1.164,0-2.3-.019-3.453-.074-.645-.037-1.3-.13-1.957-.186-.85-.074-1.727-.149-2.551-.242-1.324-.167-2.609-.371-3.887-.595-.8-.149-1.6-.279-2.4-.446-1.367-.3-2.723-.67-4.066-1.042-.645-.186-1.316-.354-1.963-.558-1.955-.615-3.887-1.321-5.76-2.1l-.059-.037a57.378,57.378,0,0,1-5.473-2.641c-.594-.316-1.172-.669-1.746-1.005-1.189-.688-2.359-1.375-3.492-2.138-.676-.428-1.285-.894-1.93-1.34-1.023-.726-2.027-1.47-2.992-2.251-.652-.521-1.266-1.041-1.893-1.581-.467-.391-.953-.762-1.4-1.172-.793-.726-1.574-1.451-2.34-2.214-.461-.465-.891-.931-1.33-1.4-.205-.223-.4-.465-.6-.688-.8-.855-1.553-1.73-2.275-2.585l-.191-.223-.207-.243-.107-.148a59.913,59.913,0,0,1-8.119-12.743l-.014-.056c-.225-.446-.416-.911-.619-1.376l-.1-.3a66.652,66.652,0,0,1-5.916-25.317c-.031-.3-.07-.615-.088-.931v-.055c-2.449-24.537-1.164-51.175-31.982-82.036l-8.262-8.279c-50.961-51.044-90.422-14.137-127.867-51.64a66.881,66.881,0,0,1-19.609-47.417,66.894,66.894,0,0,1,19.609-47.436,66.676,66.676,0,0,1,47.336-19.626,66.709,66.709,0,0,1,47.34,19.626c37.482,37.539.576,77.031,51.582,128.094l8.24,8.278c30.219,30.267,56.408,29.615,80.506,31.884,24.125-2.269,50.316-1.581,80.584-31.884l8.248-8.278c30.219-30.266,29.566-56.477,31.836-80.622-2.27-24.164-1.578-50.411-31.836-80.715l-8.248-8.259c-50.979-51.064-90.436-14.156-127.9-51.658a66.912,66.912,0,0,1-19.586-47.417,66.878,66.878,0,0,1,19.586-47.417,66.7,66.7,0,0,1,47.359-19.643,66.65,66.65,0,0,1,47.342,19.643c37.455,37.521.576,77.013,51.553,128.076l8.27,8.279c31.164,31.214,58.02,29.558,82.73,32.107a66.386,66.386,0,0,1,25.559,5.989,60.27,60.27,0,0,1,14.711,9.116l.236.2c1.549,1.3,3.1,2.679,4.648,4.223v.019c1.535,1.543,2.916,3.088,4.232,4.65l.188.224a61.012,61.012,0,0,1,9.174,14.844,66.775,66.775,0,0,1,5.883,25.336c2.584,24.815.857,51.751,32.078,83.021l8.262,8.278c50.959,51.045,90.43,14.138,127.893,51.64a66.989,66.989,0,0,1,19.609,47.417,67,67,0,0,1-19.609,47.436,66.786,66.786,0,0,1-47.367,19.644A66.678,66.678,0,0,1,18280.281-2159.123Z" transform="translate(-16239.828 2563.324)"/><path class="e" d="M17725.855-2156.667c-37.477-37.539-.576-77.032-51.568-128.094l-8.256-8.278c-31.164-31.2-58.012-29.54-82.75-32.108a67.82,67.82,0,0,1-11.273-1.247,66.38,66.38,0,0,1-14.277-4.725,60.884,60.884,0,0,1-14.7-9.133l-.236-.2c-1.566-1.3-3.1-2.678-4.648-4.222-1.561-1.563-2.936-3.106-4.232-4.67l-.186-.223a60.647,60.647,0,0,1-9.176-14.844,66.922,66.922,0,0,1-5.9-25.356c-2.564-24.8-.857-51.732-32.074-83l-8.246-8.259c-50.98-51.064-90.449-14.156-127.895-51.658a66.884,66.884,0,0,1-19.609-47.417,66.849,66.849,0,0,1,19.609-47.417,66.642,66.642,0,0,1,47.348-19.643,66.611,66.611,0,0,1,47.342,19.643c37.475,37.521.576,77.013,51.568,128.094l8.246,8.26c30.213,30.265,56.4,29.615,80.516,31.884,24.123-2.269,50.313-1.582,80.574-31.884l8.256-8.26c31.158-31.233,29.508-58.131,32.072-82.909a66.613,66.613,0,0,1,5.941-25.559,61.049,61.049,0,0,1,9.117-14.733l.2-.242c1.3-1.563,2.674-3.106,4.234-4.651a66.6,66.6,0,0,1,47.32-19.643,66.639,66.639,0,0,1,42.6,15.31c1.656,1.357,3.229,2.809,4.752,4.334,1.547,1.544,2.922,3.088,4.244,4.651l.16.223a60.226,60.226,0,0,1,9.176,14.845,67.052,67.052,0,0,1,5.908,25.337c2.582,24.815.855,51.751,32.09,83.039l8.242,8.26c50.98,51.044,90.43,14.137,127.875,51.64a66.927,66.927,0,0,1,19.609,47.436,66.916,66.916,0,0,1-19.609,47.417,66.685,66.685,0,0,1-47.324,19.644,66.739,66.739,0,0,1-47.352-19.644c-37.469-37.538-.576-77.031-51.582-128.1l-8.246-8.259c-30.213-30.285-56.391-29.634-80.488-31.9-24.125,2.288-50.328,1.581-80.584,31.9l-8.248,8.259c-30.211,30.266-29.586,56.477-31.848,80.622,2.281,24.184,1.578,50.412,31.848,80.734l8.248,8.26c50.959,51.044,90.449,14.137,127.881,51.64a66.944,66.944,0,0,1,19.615,47.417,66.956,66.956,0,0,1-19.615,47.436,66.75,66.75,0,0,1-47.355,19.643A66.678,66.678,0,0,1,17725.855-2156.667Zm554.426-2.456c-37.461-37.539-.574-77.032-51.555-128.094l-8.273-8.279c-30.211-30.266-56.375-29.614-80.5-31.884-24.125,2.27-50.312,1.582-80.562,31.884l-8.27,8.279c-30.863,30.917-29.527,57.592-31.975,82.165v.094c-.039.223-.057.446-.076.669a66.915,66.915,0,0,1-5.967,25.522l-.07.149c-.211.484-.369.949-.6,1.414l-.037.056a59.96,59.96,0,0,1-8.414,13.115l-.205.242a62.039,62.039,0,0,1-4.213,4.669,66.71,66.71,0,0,1-47.342,19.625c-1.164,0-2.3-.019-3.453-.074-.645-.037-1.3-.13-1.957-.186-.85-.074-1.727-.149-2.551-.242-1.324-.167-2.609-.371-3.887-.595-.8-.149-1.6-.279-2.4-.446-1.367-.3-2.723-.67-4.066-1.042-.645-.186-1.316-.354-1.963-.558-1.955-.615-3.887-1.321-5.76-2.1l-.059-.037a57.378,57.378,0,0,1-5.473-2.641c-.594-.316-1.172-.669-1.746-1.005-1.189-.688-2.359-1.375-3.492-2.138-.676-.428-1.285-.894-1.93-1.34-1.023-.726-2.027-1.47-2.992-2.251-.652-.521-1.266-1.041-1.893-1.581-.467-.391-.953-.762-1.4-1.172-.793-.726-1.574-1.451-2.34-2.214-.461-.465-.891-.931-1.33-1.4-.205-.223-.4-.465-.6-.688-.8-.855-1.553-1.73-2.275-2.585l-.191-.223-.207-.243-.107-.148a59.913,59.913,0,0,1-8.119-12.743l-.014-.056c-.225-.446-.416-.911-.619-1.376l-.1-.3a66.652,66.652,0,0,1-5.916-25.317c-.031-.3-.07-.615-.088-.931v-.055c-2.449-24.537-1.164-51.175-31.982-82.036l-8.262-8.279c-50.961-51.044-90.422-14.137-127.867-51.64a66.881,66.881,0,0,1-19.609-47.417,66.894,66.894,0,0,1,19.609-47.436,66.676,66.676,0,0,1,47.336-19.626,66.709,66.709,0,0,1,47.34,19.626c37.482,37.539.576,77.031,51.582,128.094l8.24,8.278c30.219,30.267,56.408,29.615,80.506,31.884,24.125-2.269,50.316-1.581,80.584-31.884l8.248-8.278c30.219-30.266,29.566-56.477,31.836-80.622-2.27-24.164-1.578-50.411-31.836-80.715l-8.248-8.259c-50.979-51.064-90.436-14.156-127.9-51.658a66.912,66.912,0,0,1-19.586-47.417,66.878,66.878,0,0,1,19.586-47.417,66.7,66.7,0,0,1,47.359-19.643,66.65,66.65,0,0,1,47.342,19.643c37.455,37.521.576,77.013,51.553,128.076l8.27,8.279c31.164,31.214,58.02,29.558,82.73,32.107a66.386,66.386,0,0,1,25.559,5.989,60.27,60.27,0,0,1,14.711,9.116l.236.2c1.549,1.3,3.1,2.679,4.648,4.223v.019c1.535,1.543,2.916,3.088,4.232,4.65l.188.224a61.012,61.012,0,0,1,9.174,14.844,66.775,66.775,0,0,1,5.883,25.336c2.584,24.815.857,51.751,32.078,83.021l8.262,8.278c50.959,51.045,90.43,14.138,127.893,51.64a66.989,66.989,0,0,1,19.609,47.417,67,67,0,0,1-19.609,47.436,66.786,66.786,0,0,1-47.367,19.644A66.678,66.678,0,0,1,18280.281-2159.123Z" transform="translate(-17726.828 3217.023)"/></g></svg>