<svg xmlns="http://www.w3.org/2000/svg" width="45" height="45" viewBox="0 0 54 53.998">
    <defs>
        <style>
            .cls-1{fill:#3972bd}
        </style>
    </defs>
    <g id="Group_10652" transform="translate(-41.737 -42.148)">
        <path id="Path_5483" d="M49.9 106.746l2.361-1.582a20.2 20.2 0 0 1-2.915-7.038L49.113 97h-4.357a22.167 22.167 0 0 1-.177-2.842 26.072 26.072 0 0 1 .315-4.035l-2.805-.456a28.953 28.953 0 0 0-.351 4.491 25.812 25.812 0 0 0 .4 4.505l.2 1.179h4.5a22.855 22.855 0 0 0 3.062 6.904z" class="cls-1" transform="translate(0 -25.008)"/>
        <path id="Path_5484" d="M63.556 131.41l-.966-.631-3.078 3.078a24.466 24.466 0 0 1-4.767-4.958l-2.307 1.66a27.319 27.319 0 0 0 6.393 6.331l.978.689 3.181-3.179a22.451 22.451 0 0 0 6.966 2.627l.551-2.789a19.6 19.6 0 0 1-6.951-2.828z" class="cls-1" transform="translate(-5.632 -45.659)"/>
        <path id="Path_5485" d="M97.98 136.98l-1.129.237v4.353a24.564 24.564 0 0 1-6.877-.134l-.457 2.805a27.3 27.3 0 0 0 9-.044l1.179-.2v-4.5a22.474 22.474 0 0 0 6.557-2.918L104.7 134.2a19.63 19.63 0 0 1-6.72 2.78z" class="cls-1" transform="translate(-25.148 -48.446)"/>
        <path id="Path_5486" d="M136.378 108.113l-2.785-.567a19.6 19.6 0 0 1-2.936 7.031l-.65.97 3.073 3.073a24.674 24.674 0 0 1-1.816 2.029 24.347 24.347 0 0 1-3.181 2.681l1.638 2.322a27.324 27.324 0 0 0 6.392-6.331l.706-.981-3.174-3.174a22.41 22.41 0 0 0 2.733-7.053z" class="cls-1" transform="translate(-45.445 -34.42)"/>
        <path id="Path_5487" d="M143.836 80.912l-.194-1.193h-4.522a22.434 22.434 0 0 0-2.948-6.683l-2.38 1.554a19.611 19.611 0 0 1 2.806 6.834l.232 1.137h4.361a26.748 26.748 0 0 1 .154 2.842 22.7 22.7 0 0 1-.354 4.021l2.8.485a25.779 25.779 0 0 0 .4-4.505 28.842 28.842 0 0 0-.355-4.492z" class="cls-1" transform="translate(-48.45 -16.257)"/>
        <path id="Path_5488" d="M114.3 57.52l.97.65 3.075-3.074a24.494 24.494 0 0 1 4.709 5l2.323-1.638a27.316 27.316 0 0 0-6.33-6.393l-.981-.706-3.175 3.175a22.41 22.41 0 0 0-6.921-2.707l-.584 2.781a19.6 19.6 0 0 1 6.914 2.912z" class="cls-1" transform="translate(-34.551 -4.846)"/>
        <path id="Path_5489" d="M73.735 52.672a19.613 19.613 0 0 1 7.148-2.959l1.145-.226V45.14a24.552 24.552 0 0 1 6.863.2l.485-2.8a27.409 27.409 0 0 0-9-.044l-1.193.194v4.491a22.405 22.405 0 0 0-7.033 3.129z" class="cls-1" transform="translate(-16.008)"/>
        <path id="Path_5490" d="M80.968 95.881l-7.434-8.6-2.15 1.859 9.293 10.75 17.2-14.868-1.859-2.15z" class="cls-1" transform="translate(-15.604 -21.433)"/>
        <path id="Path_5491" d="M51.237 70.229l2.785.568a19.628 19.628 0 0 1 2.8-6.834l.635-.963-3.078-3.078a24.45 24.45 0 0 1 4.958-4.768l-1.66-2.307a27.315 27.315 0 0 0-6.331 6.393l-.69.978 3.181 3.182a22.466 22.466 0 0 0-2.6 6.829z" class="cls-1" transform="translate(-4.694 -5.63)"/>
    </g>
</svg>
